<?xml version="1.0" encoding="iso-8859-1"?>
<!-- Generator: Adobe Illustrator 16.0.0, SVG Export Plug-In . SVG Version: 6.00 Build 0)  -->
<!DOCTYPE svg PUBLIC "-//W3C//DTD SVG 1.1//EN" "http://www.w3.org/Graphics/SVG/1.1/DTD/svg11.dtd">
<svg version="1.1" id="Capa_1" xmlns="http://www.w3.org/2000/svg" xmlns:xlink="http://www.w3.org/1999/xlink" x="0px" y="0px"
	 width="524.805px" height="524.805px" viewBox="0 0 524.805 524.805" style="enable-background:new 0 0 524.805 524.805;"
	 xml:space="preserve">
<g>
	<path d="M431.448,245.289c-18.9,2.717-52.612,5.081-106.107-7.163c-33.127-8.276-61.809-18.468-79.247-27.502
		c-1.205,1.089-2.55,1.992-3.985,2.726c1.401,1.348,2.376,3.154,2.594,5.223l29.072,265.005l-0.243,0.009l-4.211-0.351v0.229
		c-4.848-0.411-13.562-1.942-19.473-7.568c-4.487-4.273-6.764-10.422-6.764-18.293v-4.328h-12.989v4.328
		c0,6.84-2.155,12.378-6.404,16.481c-5.845,5.642-14.591,7.942-21.153,8.876l24.942-264.265c0.128-1.48,0.667-2.824,1.445-3.984
		c-0.68-0.191-1.333-0.399-1.973-0.656c-38.13,36.394-135.006,113.002-157.789,133.046c-29.07,25.549-6.329-44.197-6.329-44.197
		c11.448-15.295,33.61-40.8,80.088-69.96c27.743-16.654,53.866-29.256,72.463-35.587c-0.033-1.592,0.118-3.207,0.528-4.818
		c0.766-3.053,2.253-5.735,4.235-7.913c-32.493-40.687-98.583-145.407-116.6-170.119c-22.781-31.27,44.597-2.257,44.597-2.257
		c14.184,12.799,35.38,37.189,60.181,86.146c15.443,32.03,26.189,61.659,30.018,80.805c6.566,1.699,11.378,6.741,13.099,12.843
		c52.041,1.048,176.277,15.562,206.79,17.524C496.852,212.049,431.448,245.289,431.448,245.289z M327.442,480.005
		c-5.384-5.122-8.102-12.328-8.102-21.417h-4.336c0,8.054-2.594,14.643-7.728,19.59c-11.764,11.355-33.124,10.741-33.334,10.725
		l-0.075,2.145l-0.116-2.139c-0.168,0.005-16.384,0.691-26.441-8.898c-5.374-5.122-8.108-12.322-8.108-21.417h-4.321
		c0,8.055-2.605,14.646-7.726,19.59c-10.865,10.492-29.922,10.769-32.932,10.736v-0.006c-0.011,0-0.09,0-0.151,0.006
		c-0.152-0.006-0.254-0.006-0.264-0.006v0.019c-2.504,0.037-16.811-0.145-26.028-8.916c-5.374-5.119-8.096-12.323-8.096-21.415
		h-4.331c0,8.055-2.594,14.643-7.727,19.593c-11.767,11.35-33.127,10.742-33.345,10.72l-0.152,4.328
		c0.941,0.028,23.388,0.711,36.499-11.916c2.956-2.857,5.201-6.157,6.709-9.884c1.572,4.562,4.074,8.492,7.497,11.737
		c9.838,9.352,24.144,10.091,28.397,10.085c0.393,0,0.667-0.004,0.885-0.012c3.39,0.05,23.782-0.118,36.032-11.927
		c2.963-2.857,5.209-6.157,6.717-9.884c1.564,4.562,4.074,8.492,7.485,11.737c9.842,9.352,24.147,10.091,28.401,10.085
		c0.589,0,0.939-0.012,1.104-0.017c1.576,0.044,23.519,0.514,36.422-11.922c2.962-2.857,5.198-6.157,6.72-9.884
		c1.56,4.562,4.071,8.492,7.485,11.737c9.838,9.352,24.144,10.091,28.394,10.085c0.69,0,1.116-0.017,1.217-0.022l-0.215-4.317
		C353.724,488.913,337.5,489.592,327.442,480.005z M327.442,511.54c-5.384-5.122-8.102-12.322-8.102-21.417h-4.336
		c0,8.054-2.594,14.643-7.728,19.595c-11.764,11.349-33.124,10.741-33.334,10.722l-0.075,2.143l-0.116-2.143
		c-0.168,0.004-16.384,0.688-26.441-8.899c-5.374-5.122-8.108-12.322-8.108-21.417h-4.321c0,8.054-2.605,14.643-7.726,19.595
		c-10.865,10.484-29.922,10.764-32.932,10.736v-0.011c-0.011,0-0.09,0.011-0.151,0.011c-0.152,0-0.254-0.011-0.264-0.011v0.016
		c-2.504,0.041-16.811-0.142-26.028-8.914c-5.374-5.121-8.096-12.322-8.096-21.417h-4.331c0,8.055-2.594,14.643-7.727,19.596
		c-11.767,11.351-33.127,10.743-33.345,10.725l-0.152,4.323c0.941,0.027,23.388,0.711,36.499-11.924
		c2.956-2.849,5.201-6.155,6.709-9.877c1.572,4.563,4.074,8.489,7.497,11.739c9.838,9.352,24.144,10.085,28.397,10.085
		c0.393,0,0.667-0.008,0.885-0.013c3.39,0.05,23.782-0.121,36.032-11.93c2.963-2.85,5.209-6.155,6.717-9.876
		c1.564,4.562,4.074,8.488,7.485,11.737c9.842,9.354,24.147,10.085,28.401,10.085c0.589,0,0.939-0.012,1.104-0.017
		c1.576,0.046,23.519,0.514,36.422-11.922c2.962-2.853,5.198-6.157,6.72-9.879c1.56,4.566,4.071,8.487,7.485,11.738
		c9.838,9.352,24.144,10.085,28.394,10.085c0.69,0,1.116-0.018,1.217-0.022l-0.215-4.323
		C353.724,520.454,337.5,521.127,327.442,511.54z"/>
</g>
<g>
</g>
<g>
</g>
<g>
</g>
<g>
</g>
<g>
</g>
<g>
</g>
<g>
</g>
<g>
</g>
<g>
</g>
<g>
</g>
<g>
</g>
<g>
</g>
<g>
</g>
<g>
</g>
<g>
</g>
</svg>
